<svg width="64" height="64" viewBox="0 0 64 64" fill="none" xmlns="http://www.w3.org/2000/svg">
<path d="M64 32C64 49.6731 49.6731 64 32 64C14.3269 64 0 49.6731 0 32C0 14.3269 14.3269 0 32 0C49.6731 0 64 14.3269 64 32Z" fill="#B42828"/>
<path d="M44.744 31.9384L36.964 24.1521C36.7614 23.9493 36.4332 23.9493 36.2306 24.1521C36.028 24.3549 36.028 24.6834 36.2306 24.8861L43.1253 31.7863H20.5187C20.232 31.7863 20 32.0185 20 32.3054C20 32.5924 20.232 32.8245 20.5187 32.8245H43.1253L36.2306 39.7247C36.028 39.9275 36.028 40.256 36.2306 40.4587C36.3319 40.5601 36.4647 40.6108 36.5974 40.6108C36.7301 40.6108 36.8627 40.5601 36.9641 40.4587L44.7441 32.6724C44.9466 32.4697 44.9466 32.1412 44.744 31.9384Z" fill="white"/>
</svg>
