<svg width="28" height="28" viewBox="0 0 28 28" fill="none" xmlns="http://www.w3.org/2000/svg">
<circle cx="14" cy="14" r="13.5" fill="white" stroke="black"/>
<path d="M9.5 18.875V17.9375H10.8125V13.1562C10.8125 12.2812 11.0703 11.5026 11.5859 10.8203C12.1016 10.138 12.7812 9.70833 13.625 9.53125V9.07812C13.625 8.83854 13.7109 8.64062 13.8828 8.48438C14.0547 8.32812 14.2604 8.25 14.5 8.25C14.7396 8.25 14.9453 8.32812 15.1172 8.48438C15.2891 8.64062 15.375 8.83854 15.375 9.07812V9.53125C16.2188 9.70833 16.901 10.138 17.4219 10.8203C17.9427 11.5026 18.2031 12.2812 18.2031 13.1562V17.9375H19.5V18.875H9.5ZM14.5 20.75C14.1667 20.75 13.875 20.6276 13.625 20.3828C13.375 20.138 13.25 19.8438 13.25 19.5H15.75C15.75 19.8438 15.6276 20.138 15.3828 20.3828C15.138 20.6276 14.8438 20.75 14.5 20.75Z" fill="#060606"/>
</svg>
